HIERARCHY
ROOT wrist
{
	OFFSET 0.00 0.00 0.00
	CHANNELS 6 Xposition Yposition Zposition Xrotation Yrotation Zrotation
	JOINT riHand
	{
		OFFSET -0.04598 0.37556 -0.10882
		CHANNELS 3 Xrotation Yrotation Zrotation
		JOINT RiIndexMP
		{
			OFFSET -1.68547 2.46874 -0.24056
			CHANNELS 3 Zrotation Xrotation Yrotation
			JOINT RiIndexPIP
			{
				OFFSET -0.10277 1.47086 -0.45732
				CHANNELS 3 Xrotation Yrotation Zrotation
				JOINT RiIndexDIP
				{
					OFFSET -0.08662 0.93830 -0.07738
					CHANNELS 3 Xrotation Yrotation Zrotation
					End Site
					{
						OFFSET -0.07343 0.79543 -0.06560
					}
				}
			}
		}
		JOINT RiMiddleMP
		{
			OFFSET -0.85407 2.65552 -0.00744
			CHANNELS 3 Zrotation Xrotation Yrotation
			JOINT RiMiddlePIP
			{
				OFFSET -0.20884 1.70284 -0.28882
				CHANNELS 3 Xrotation Yrotation Zrotation
				JOINT RiMiddleDIP
				{
					OFFSET -0.13336 1.10092 -0.23410
					CHANNELS 3 Xrotation Yrotation Zrotation
					End Site
					{
						OFFSET -0.11503 0.94711 -0.19274
					}
				}
			}
		}
		JOINT RiRingMP
		{
			OFFSET 0.20418 2.54564 0.23484
			CHANNELS 3 Zrotation Xrotation Yrotation
			JOINT RiRingPIP
			{
				OFFSET -0.04892 1.76626 -0.37155
				CHANNELS 3 Xrotation Yrotation Zrotation
				JOINT RiRingDIP
				{
					OFFSET -0.02641 0.95308 -0.21249
					CHANNELS 3 Xrotation Yrotation Zrotation
					End Site
					{
						OFFSET -0.02537 0.91606 -0.19270
					}
				}
			}
		}
		JOINT RiPinkyMP
		{
			OFFSET 0.88895 2.32064 0.25776
			CHANNELS 3 Zrotation Xrotation Yrotation
			JOINT RiPinkyPIP
			{
				OFFSET 0.43367 1.29723 -0.28031
				CHANNELS 3 Xrotation Yrotation Zrotation
				JOINT RiPinkyDIP
				{
					OFFSET 0.24248 0.73091 -0.16650
					CHANNELS 3 Xrotation Yrotation Zrotation
					End Site
					{
						OFFSET 0.26427 0.78713 -0.16490
					}
				}
			}
		}
		JOINT RiThumbCMC
		{
			OFFSET -1.27353 -0.34685 -0.51300
			CHANNELS 3 Xrotation Yrotation Zrotation
			JOINT RiThumbMP
			{
				OFFSET -0.97380 1.27673 -0.24634
				CHANNELS 3 Xrotation Yrotation Zrotation
				JOINT RiThumbIP
				{
					OFFSET -0.70681 0.85176 -0.10722
					CHANNELS 3 Xrotation Yrotation Zrotation
					End Site
					{
						OFFSET -0.60213 0.74049 -0.11612
					}
				}
			}
		}
	}
}
MOTION
Frames: 20
Frame Time: 0.008333
 -19.5270 50.0782 -7.8247 -121.2520 14.3668 102.7775 -14.5938 20.4414 -16.3791 -3.2497 10.7303 0.4712 -23.8420 -1.8417 -2.7605 -11.7163 -1.0500 -1.2615 -5.8870 10.5730 1.4508 -18.8436 -2.2692 -1.0436 -5.4241 -0.6873 -0.2231 -3.4931 1.1693 -0.6327 -5.6848 -0.1560 -0.0001 2.1681 0.0594 -0.0040 9.8516 0.4389 2.2509 -3.6056 1.3458 0.8262 -8.4951 3.0703 2.0703 7.2569 -44.2179 13.8595 -3.1408 -2.8413 -3.1417 11.1237 12.9036 11.1281
 -19.5263 50.0678 -7.8336 -121.1914 14.2587 102.6351 -14.6570 20.2401 -16.1524 -3.2405 10.9062 0.4992 -23.7289 -1.8358 -2.7458 -11.8767 -1.0625 -1.2802 -5.9348 10.8713 1.5231 -19.5339 -2.3448 -1.0956 -4.9679 -0.6304 -0.2019 -3.5178 1.2510 -0.6301 -5.9354 -0.1628 -0.0005 2.5185 0.0690 -0.0049 9.8652 0.3003 2.3280 -3.2860 1.2290 0.7497 -8.7642 3.1616 2.1427 7.4279 -43.8319 14.0183 -3.4139 -3.0737 -3.4150 11.0681 12.8268 11.0726
 -19.5282 50.0639 -7.8392 -121.2126 14.3715 102.6620 -14.8322 20.2211 -16.2612 -3.2411 10.8819 0.4954 -23.7422 -1.8365 -2.7475 -12.4881 -1.1097 -1.3517 -5.9006 10.7139 1.4847 -19.3207 -2.3216 -1.0794 -5.1368 -0.6515 -0.2097 -3.4744 1.0792 -0.6371 -5.5669 -0.1527 0.0000 2.3234 0.0636 -0.0044 9.9805 0.2009 2.4137 -3.0906 1.1573 0.7033 -8.8363 3.1860 2.1622 7.5973 -43.7386 14.3638 -3.8295 -3.4228 -3.8307 11.2509 13.0799 11.2554
 -19.5289 50.0530 -7.8429 -121.1792 14.1269 102.6011 -14.5179 20.2445 -16.1953 -3.3866 10.6458 0.4406 -23.6408 -1.8312 -2.7344 -12.3861 -1.1019 -1.3398 -6.0219 10.6606 1.4742 -19.5829 -2.3502 -1.0993 -4.8268 -0.6127 -0.1954 -3.5916 1.1677 -0.6517 -5.7346 -0.1573 -0.0002 2.0666 0.0566 -0.0038 10.0518 0.3979 2.3298 -3.1828 1.1912 0.7252 -6.1117 2.2448 1.4467 7.2523 -43.8925 14.0269 -3.6832 -3.3005 -3.6843 11.2559 13.0869 11.2604
 -19.5287 50.0505 -7.8529 -120.5948 13.9662 102.4336 -14.4300 20.6599 -16.0003 -3.3876 10.7191 0.4518 -24.3632 -1.8685 -2.8284 -11.3150 -1.0184 -1.2150 -6.0439 10.7748 1.5022 -19.6205 -2.3543 -1.1022 -5.2395 -0.6643 -0.2145 -3.5758 1.2052 -0.6453 -5.7242 -0.1571 -0.0002 2.0270 0.0555 -0.0037 10.2343 0.2520 2.4604 -2.1164 0.7972 0.4752 -7.4693 2.7186 1.7980 7.1024 -43.8097 13.8579 -3.6561 -3.2777 -3.6572 11.1061 12.8793 11.1106
 -19.5287 50.0454 -7.8558 -120.6087 13.9492 102.4379 -14.3668 20.7169 -16.0956 -3.3956 10.4798 0.4138 -23.8819 -1.8438 -2.7657 -11.7353 -1.0515 -1.2638 -5.9848 10.5856 1.4555 -19.6679 -2.3595 -1.1058 -4.5074 -0.5727 -0.1809 -3.5374 1.1548 -0.6425 -5.9213 -0.1625 -0.0005 2.2531 0.0617 -0.0042 10.2377 0.2545 2.4600 -2.2102 0.8321 0.4970 -7.4863 2.7245 1.8024 7.0652 -44.0645 13.9115 -3.6668 -3.2868 -3.6680 11.0536 12.8068 11.0581
 -19.5289 50.0354 -7.8619 -120.5313 13.8257 102.3701 -14.1907 20.5938 -15.9940 -3.4375 10.5327 0.4164 -24.3191 -1.8662 -2.8226 -11.9148 -1.0655 -1.2847 -6.1289 10.3663 1.4045 -19.6004 -2.3521 -1.1006 -4.6981 -0.5966 -0.1895 -3.6787 0.9606 -0.6875 -5.7072 -0.1566 -0.0002 1.6395 0.0449 -0.0028 10.1733 -0.0065 2.5803 -2.1008 0.7914 0.4716 -7.4721 2.7196 1.7987 7.3239 -44.1853 14.0916 -3.4886 -3.1368 -3.4896 10.9353 12.6438 10.9397
 -19.5292 50.0338 -7.8695 -120.5436 14.0038 102.3970 -14.4748 20.6243 -16.0608 -3.4245 10.3061 0.3831 -23.8856 -1.8440 -2.7662 -11.8743 -1.0623 -1.2799 -6.0203 10.3639 1.4026 -19.2534 -2.3142 -1.0744 -5.6999 -0.7216 -0.2362 -3.5492 1.0484 -0.6543 -5.8029 -0.1592 -0.0003 1.9115 0.0524 -0.0034 10.2441 -0.0435 2.6211 -1.9670 0.7416 0.4408 -7.4380 2.7078 1.7898 6.9043 -43.8986 13.8536 -3.6763 -3.2947 -3.6774 11.0742 12.8352 11.0787
 -19.5287 50.0268 -7.8732 -120.5003 13.8563 102.3893 -14.3185 20.5910 -16.0898 -3.4348 10.2497 0.3730 -23.7369 -1.8362 -2.7468 -12.1186 -1.0813 -1.3085 -6.0077 10.4270 1.4176 -19.5357 -2.3450 -1.0957 -5.3087 -0.6729 -0.2177 -3.5646 1.0928 -0.6533 -5.9653 -0.1637 -0.0005 1.9568 0.0536 -0.0035 10.1845 0.1095 2.5219 -2.3189 0.8724 0.5222 -7.3780 2.6871 1.7740 6.8325 -44.0324 13.6672 -3.3861 -3.0501 -3.3871 11.0133 12.7512 11.0178
 -19.5292 50.0258 -7.8806 -120.4901 13.9967 102.3456 -14.5480 20.4034 -16.0915 -3.3962 10.2563 0.3793 -24.0252 -1.8512 -2.7843 -12.1765 -1.0857 -1.3152 -6.0104 10.3668 1.4032 -19.8676 -2.3812 -1.1210 -4.5448 -0.5774 -0.1826 -3.5360 0.9194 -0.6634 -5.7839 -0.1587 -0.0003 1.8678 0.0512 -0.0033 10.1610 -0.0894 2.6207 -2.3204 0.8730 0.5225 -7.3273 2.6695 1.7607 7.2584 -43.8473 14.1200 -3.6671 -3.2870 -3.6682 11.1350 12.9193 11.1395
 -19.5293 50.0232 -7.8857 -120.5558 14.1059 102.3047 -14.7090 20.2387 -16.1033 -3.4342 10.3392 0.3869 -24.7506 -1.8879 -2.8790 -11.6201 -1.0424 -1.2504 -6.0286 10.2756 1.3814 -19.5444 -2.3460 -1.0964 -5.1071 -0.6478 -0.2083 -3.5571 0.8411 -0.6746 -5.5633 -0.1527 0.0000 1.6920 0.0463 -0.0029 10.0821 0.0008 2.5494 -3.6443 1.3600 0.8355 -5.0044 1.8514 1.1680 7.4105 -43.7302 14.4230 -3.9189 -3.4972 -3.9201 11.0473 12.7981 11.0518
 -19.5281 50.0209 -7.8907 -120.4887 14.1439 102.2963 -14.6978 20.0192 -16.1973 -3.3323 10.1382 0.3701 -24.5968 -1.8802 -2.8589 -12.0532 -1.0762 -1.3008 -6.0183 10.0844 1.3352 -19.7059 -2.3636 -1.1087 -4.7179 -0.5991 -0.1904 -3.5673 0.5521 -0.7027 -5.3631 -0.1472 0.0003 1.6515 0.0452 -0.0029 9.8206 -0.2504 2.6040 -3.2142 1.2027 0.7326 -9.0086 3.2442 2.2088 7.3647 -43.4413 14.4663 -3.9752 -3.5440 -3.9764 11.2475 13.0752 11.2520
 -19.5299 50.0208 -7.8966 -120.4858 14.2642 102.1844 -14.9152 19.7999 -16.1438 -3.3548 10.0733 0.3570 -24.5739 -1.8791 -2.8559 -12.3228 -1.0970 -1.3324 -6.0213 10.1340 1.3472 -19.8552 -2.3798 -1.1201 -4.7660 -0.6051 -0.1926 -3.6291 0.6190 -0.7091 -5.4875 -0.1506 0.0001 1.5472 0.0424 -0.0026 9.8042 -0.2007 2.5732 -3.0065 1.1264 0.6834 -9.1565 3.2940 2.2490 7.3831 -43.2465 14.5802 -4.0833 -3.6335 -4.0846 11.3340 13.1955 11.3385
 -19.5309 50.0159 -7.9030 -120.2045 14.3521 102.0740 -14.9771 19.9027 -15.9805 -3.5946 9.8726 0.2918 -24.1536 -1.8578 -2.8011 -12.7947 -1.1331 -1.3878 -6.2160 10.0630 1.3314 -19.7952 -2.3733 -1.1155 -4.7257 -0.6001 -0.1908 -3.8460 0.6709 -0.7478 -5.8854 -0.1615 -0.0004 2.3080 0.0632 -0.0044 9.7495 -0.2857 2.6012 -2.2411 0.8435 0.5041 -7.7955 2.8311 1.8840 7.4503 -43.0863 14.6291 -4.2340 -3.7576 -4.2353 11.2327 13.0546 11.2372
 -19.5293 50.0144 -7.9105 -119.9706 14.3917 102.0060 -15.0492 19.8263 -15.9800 -3.4656 10.0840 0.3431 -24.4390 -1.8723 -2.8383 -12.8121 -1.1344 -1.3898 -6.1626 10.2184 1.3689 -20.1428 -2.4110 -1.1422 -4.7250 -0.6000 -0.1907 -3.8187 0.8169 -0.7284 -5.7056 -0.1566 -0.0002 1.4223 0.0390 -0.0024 9.7437 -0.1510 2.5293 -2.7490 1.0316 0.6227 -7.9070 2.8694 1.9135 7.2758 -43.1178 14.3360 -3.7325 -3.3418 -3.7337 10.9965 12.7280 11.0009
 -19.5314 50.0120 -7.9130 -120.2835 14.3757 102.0604 -15.0245 19.4970 -16.1759 -3.4236 9.9519 0.3287 -24.2034 -1.8603 -2.8075 -13.0170 -1.1500 -1.4140 -6.1041 10.1348 1.3480 -20.0617 -2.4023 -1.1359 -4.8150 -0.6112 -0.1949 -3.8064 0.4950 -0.7565 -7.0953 -0.1946 -0.0026 5.2551 0.1436 -0.0136 9.6272 0.1283 2.3497 -3.6013 1.3443 0.8252 -9.1229 3.2827 2.2399 8.2520 -42.8971 15.5425 -4.9265 -4.3194 -4.9279 11.5767 13.5348 11.5814
 -19.5340 50.0101 -7.9171 -120.2970 14.3963 102.0226 -14.9797 19.4631 -16.1840 -3.5346 9.7841 0.2868 -23.9960 -1.8497 -2.7805 -13.2374 -1.1665 -1.4401 -6.1877 9.9728 1.3092 -19.9226 -2.3872 -1.1252 -4.9754 -0.6313 -0.2022 -3.8963 0.6659 -0.7583 -5.8905 -0.1616 -0.0004 1.6999 0.0466 -0.0030 9.5606 0.0995 2.3455 -3.5494 1.3253 0.8127 -7.8523 2.8506 1.8990 7.2647 -42.9483 14.6475 -4.3125 -3.8220 -4.3138 11.3641 13.2375 11.3687
 -19.5356 50.0080 -7.9247 -120.2314 14.4642 101.9550 -15.1338 19.3507 -16.0914 -3.4908 9.9843 0.3241 -24.2749 -1.8640 -2.8169 -13.0012 -1.1488 -1.4121 -6.2214 10.0363 1.3249 -19.9194 -2.3868 -1.1250 -4.7393 -0.6018 -0.1914 -3.9204 0.1818 -0.8099 -4.4648 -0.1225 0.0012 0.4773 0.0131 -0.0007 9.4846 -0.0232 2.3871 -3.5852 1.3384 0.8213 -7.9279 2.8765 1.9190 7.5650 -42.8687 14.8987 -4.3398 -3.8444 -4.3411 11.4077 13.2982 11.4123
 -19.5339 50.0021 -7.9265 -120.1600 14.2522 101.9654 -14.6762 19.3178 -16.2260 -3.4771 9.6557 0.2754 -23.9646 -1.8481 -2.7764 -13.3411 -1.1743 -1.4523 -6.1889 9.7744 1.2608 -19.9763 -2.3930 -1.1294 -5.0057 -0.6351 -0.2036 -3.9161 -0.2394 -0.8496 -3.6221 -0.0994 0.0017 -0.9320 -0.0256 0.0010 9.4710 -0.3188 2.5357 -3.6565 1.3644 0.8384 -8.0521 2.9191 1.9520 7.4888 -42.5222 15.0330 -4.6870 -4.1267 -4.6884 11.4458 13.3515 11.4504
 -19.5356 50.0006 -7.9316 -120.1614 14.3079 101.9183 -14.7222 19.2339 -16.2106 -3.5063 9.6991 0.2778 -24.2897 -1.8647 -2.8188 -13.1433 -1.1595 -1.4289 -6.2759 9.6268 1.2247 -20.4319 -2.4423 -1.1645 -3.7440 -0.4768 -0.1471 -3.9411 -0.4117 -0.8716 -4.4890 -0.1232 0.0012 0.7729 0.0212 -0.0012 9.2650 -0.4312 2.5322 -4.4262 1.6436 1.0253 -9.4211 3.3828 2.3212 7.6907 -42.5265 15.2209 -4.6315 -4.0818 -4.6329 11.3157 13.1701 11.3203
